<?xml version="1.0" encoding="UTF-8" standalone="no"?>
<!-- Uploaded to: SVG Repo, www.svgrepo.com, Generator: SVG Repo Mixer Tools -->

<svg
   width="800px"
   height="800px"
   viewBox="0 0 64 64"
   id="Layer_1"
   data-name="Layer 1"
   version="1.1"
   sodipodi:docname="geography2-svgrepo-com.svg"
   inkscape:version="1.3 (0e150ed6c4, 2023-07-21)"
   xmlns:inkscape="http://www.inkscape.org/namespaces/inkscape"
   xmlns:sodipodi="http://sodipodi.sourceforge.net/DTD/sodipodi-0.dtd"
   xmlns="http://www.w3.org/2000/svg"
   xmlns:svg="http://www.w3.org/2000/svg">
  <defs
     id="defs5" />
  <sodipodi:namedview
     id="namedview5"
     pagecolor="#ffffff"
     bordercolor="#000000"
     borderopacity="0.25"
     inkscape:showpageshadow="2"
     inkscape:pageopacity="0.0"
     inkscape:pagecheckerboard="0"
     inkscape:deskcolor="#d1d1d1"
     showgrid="false"
     inkscape:zoom="1.01625"
     inkscape:cx="400.492"
     inkscape:cy="400"
     inkscape:window-width="1920"
     inkscape:window-height="1009"
     inkscape:window-x="1912"
     inkscape:window-y="-8"
     inkscape:window-maximized="1"
     inkscape:current-layer="Layer_1" />
  <g
     id="g5">
    <path
       d="M47.61,16.34l-2.77,3.55a1.18,1.18,0,0,1-.91.44h-3.8a1.21,1.21,0,0,1-.58-.16l-1.43-.83a1.14,1.14,0,0,0-1.24.05l-2.15,1.54a1.14,1.14,0,0,1-1.31,0L29.14,18a1.16,1.16,0,0,1-.26-1.65L34.7,8.84"
       fill="none"
       stroke="#000000"
       stroke-linecap="round"
       stroke-miterlimit="10"
       stroke-width="3"
       id="path1" />
    <path
       id="circle1"
       style="fill:none;stroke:#000000;stroke-width:3;stroke-linecap:round;stroke-miterlimit:10"
       d="M 50.450001,24.719999 A 16.540001,16.540001 0 0 1 33.91,41.26 16.540001,16.540001 0 0 1 17.369999,24.719999 16.540001,16.540001 0 0 1 33.91,8.1799984 16.540001,16.540001 0 0 1 50.450001,24.719999 Z" />
    <path
       d="M49.17,40.56A21.72,21.72,0,0,1,18.39,9.91"
       fill="none"
       stroke="#000000"
       stroke-linecap="round"
       stroke-miterlimit="10"
       stroke-width="3"
       id="path2" />
    <path
       d="M20.1,33.83l5.43-4.64a1.16,1.16,0,0,1,1.41-.09l2.42,1.66a1.13,1.13,0,0,0,1.12.1l3.7-2.5a1.13,1.13,0,0,1,1.16.12l4,2.31a1.15,1.15,0,0,1,.21,1.63l-2.34,4.06a1.15,1.15,0,0,1-1.35.35l-3.63-1a1.15,1.15,0,0,0-1.59.94l-.42,4.07"
       fill="none"
       stroke="#000000"
       stroke-linecap="round"
       stroke-miterlimit="10"
       stroke-width="3"
       id="path3" />
    <path
       id="line3"
       style="fill:none;stroke:#000000;stroke-width:3;stroke-linecap:round;stroke-miterlimit:10"
       d="m 45.400002,36.619999 6.389999,6.670002" />
    <path
       id="line4"
       style="fill:none;stroke:#000000;stroke-width:3;stroke-linecap:round;stroke-miterlimit:10"
       d="M 21.780001,13.47 15.33,6.6999998" />
    <path
       id="line5"
       style="fill:none;stroke:#000000;stroke-width:3;stroke-linecap:round;stroke-miterlimit:10"
       d="m 33.93,46.799999 v 5.34" />
    <path
       d="M41.12,57.3H26.33a1.14,1.14,0,0,1-1.06-1.57l2.51-2.87a1.17,1.17,0,0,1,1.07-.72h9.76a1.15,1.15,0,0,1,1.06.72l2.52,2.87A1.15,1.15,0,0,1,41.12,57.3Z"
       fill="none"
       stroke="#000000"
       stroke-linecap="round"
       stroke-miterlimit="10"
       stroke-width="3"
       id="path5" />
  </g>
</svg>
