<!DOCTYPE svg PUBLIC "-//W3C//DTD SVG 1.1//EN" "http://www.w3.org/Graphics/SVG/1.1/DTD/svg11.dtd">
<!-- Uploaded to: SVG Repo, www.svgrepo.com, Transformed by: SVG Repo Mixer Tools -->
<svg height="800px" width="800px" version="1.1" id="Layer_1" xmlns="http://www.w3.org/2000/svg" xmlns:xlink="http://www.w3.org/1999/xlink" viewBox="-51.2 -51.2 614.40 614.40" xml:space="preserve" fill="#000000">
<g id="SVGRepo_bgCarrier" stroke-width="0"/>
<g id="SVGRepo_tracerCarrier" stroke-linecap="round" stroke-linejoin="round" stroke="#CCCCCC" stroke-width="1.024"/>
<g id="SVGRepo_iconCarrier"> <g transform="translate(1 1)"> <polygon style="fill:#FFFFFF;" points="84.333,20.547 7.533,63.213 7.533,489.88 84.333,447.213 161.133,489.88 161.133,63.213 "/> <polygon style="fill:#FFFFFF;" points="7.533,63.213 7.533,489.88 33.133,475.373 33.133,54.68 "/> <polygon style="fill:#FFFFFF;" points="161.133,489.88 502.467,489.88 502.467,63.213 161.133,63.213 "/> <polygon style="fill:#FFFFFF;" points="476.867,489.88 502.467,489.88 502.467,63.213 476.867,63.213 "/> <path style="fill:#FFFFFF;" d="M272.067,63.213c0,0,2.56,53.76-4.267,82.773c-2.56,12.8-9.387,23.893-18.773,33.28 c-7.68,7.68-18.773,23.04-2.56,46.933c0,0,8.533,17.92,8.533,76.8c0,0,5.12,51.2-42.667,51.2h-51.2v59.733 c0,0,30.72-17.067,102.4-17.067c0,0,50.347,5.12,80.213-21.333c5.12-4.267,10.24-7.68,16.213-10.24 c13.653-4.267,37.547-7.68,65.707,13.653l76.8,51.2V361.88c-22.187-21.333-42.667-34.133-56.32-41.813 c-11.093-5.973-24.747-9.387-37.547-9.387c-17.92,0-39.253,4.267-51.2,6.827c-8.533,1.707-17.067,2.56-24.747,0 c-39.253-8.533-34.987-49.493-34.987-49.493v-25.6c0-13.653,6.827-26.453,12.8-35.84c8.533-11.947,12.8-25.6,12.8-40.107v-0.853 c0-45.227,68.267-102.4,68.267-102.4H272.067z"/> <polygon style="fill:#FFFFFF;" points="476.867,344.813 476.867,413.08 502.467,430.147 502.467,361.88 "/> <path style="fill:#FFFFFF;" d="M384.707,152.813c-22.187,26.453-7.68,69.12,26.453,72.533c1.707,0,3.413,0,5.12,0h0.853 c36.693-0.853,54.613-45.227,30.72-72.533l-20.48-24.747c-5.973-6.827-16.213-6.827-22.187,0L384.707,152.813z"/> <path style="fill:#FFFFFF;" d="M449.56,152.813l-20.48-24.747c-5.12-5.973-13.653-6.827-19.627-2.56 c0.853,0.853,1.707,1.707,2.56,2.56l20.48,24.747c22.187,25.6,7.68,65.707-23.893,71.68c0.853,0,1.707,0.853,3.413,0.853 s3.413,0,5.12,0h0.853C454.68,224.493,472.6,180.12,449.56,152.813"/> <path d="M161.133,498.413c-1.707,0-2.56,0-4.267-0.853L84.333,456.6L11.8,496.707c-2.56,1.707-5.973,1.707-8.533,0 C0.707,495-1,493.293-1,489.88V63.213c0-3.413,1.707-5.973,4.267-7.68l76.8-42.667c2.56-1.707,5.973-1.707,8.533,0l76.8,42.667 c2.56,1.707,4.267,4.267,4.267,7.68V489.88c0,3.413-1.707,5.973-4.267,7.68C164.547,498.413,162.84,498.413,161.133,498.413z M84.333,438.68c1.707,0,2.56,0,4.267,0.853l64,35.84V68.333l-68.267-38.4l-68.267,38.4v407.04l64-35.84 C81.773,438.68,82.627,438.68,84.333,438.68z"/> <path d="M502.467,498.413H161.133c-5.12,0-8.533-3.413-8.533-8.533V63.213c0-5.12,3.413-8.533,8.533-8.533h341.333 c5.12,0,8.533,3.413,8.533,8.533V489.88C511,495,507.587,498.413,502.467,498.413z M169.667,481.347h324.267v-409.6H169.667 V481.347z"/> <path d="M511,446.36l-90.453-59.733c-24.747-18.773-45.227-17.92-58.027-12.8c-4.267,1.707-8.533,4.267-12.8,8.533 c-31.573,27.307-81.067,23.893-87.04,23.04c-67.413,0-97.28,16.213-98.133,16.213l-11.947,5.973v-82.773h59.733 c11.093,0,19.627-3.413,24.747-9.387C248.173,323.48,246.467,303,246.467,303v-0.853c0-49.493-5.973-69.12-7.68-72.533 c-19.627-29.013-3.413-49.493,4.267-57.173c8.533-7.68,13.653-17.92,16.213-29.013c5.973-27.307,4.267-79.36,4.267-80.213V54.68 h151.893l-17.92,15.36C378.733,85.4,331.8,131.48,331.8,165.613c0,16.213-5.12,31.573-14.507,45.227 c-5.12,7.68-11.093,19.627-11.093,31.573v25.6c0,4.267-1.707,34.133,28.16,40.96c5.973,1.707,13.653,0.853,21.333-0.853 c11.947-2.56,34.133-6.827,52.907-6.827c14.507,0,29.013,3.413,41.813,11.093c12.8,7.68,34.133,20.48,58.027,42.667l2.56,2.56 V446.36z M379.587,353.347c13.653,0,31.573,4.267,51.2,18.773l63.147,41.813v-48.64c-21.333-19.627-40.107-31.573-52.053-37.547 c-10.24-5.973-21.333-8.533-33.28-8.533c-17.067,0-38.4,4.267-48.64,5.973c-10.24,2.56-19.627,2.56-29.013,0 c-36.693-8.533-43.52-41.813-41.813-58.88V241.56c0-13.653,5.12-27.307,14.507-40.96c7.68-11.093,11.093-23.04,11.093-34.987 c0-34.133,34.133-73.387,54.613-93.867H280.6c0,17.067,0,52.907-4.267,75.947C272.92,162.2,266.093,175,255,185.24 c-10.24,10.24-11.093,22.187-1.707,34.987l0.853,1.707c0.853,1.707,9.387,21.333,9.387,80.213c0,4.267,1.707,28.16-13.653,45.227 c-8.533,9.387-21.333,14.507-37.547,14.507h-42.667v38.4c15.36-5.12,46.08-12.8,93.867-12.8h0.853 c0.853,0,46.933,5.12,74.24-18.773c6.827-5.973,12.8-9.387,18.773-11.947C362.52,355.053,370.2,353.347,379.587,353.347z"/> <path d="M417.133,233.88c-1.707,0-4.267,0-5.973,0c-18.773-1.707-34.133-13.653-40.96-31.573 c-7.68-18.773-4.267-39.253,8.533-54.613l21.333-24.747c4.267-5.12,11.093-8.533,17.92-8.533l0,0c6.827,0,12.8,2.56,17.92,8.533 l20.48,24.747c13.653,16.213,16.213,37.547,7.68,57.173c-8.533,17.92-25.6,29.867-45.227,29.867L417.133,233.88z M417.133,131.48 c-0.853,0-3.413,0-4.267,2.56l-21.333,23.893c-8.533,10.24-11.093,24.747-5.973,37.547c5.12,11.947,14.507,19.627,27.307,21.333 c1.707,0,2.56,0,4.267,0c13.653,0,24.747-7.68,30.72-20.48c5.973-12.8,4.267-28.16-5.12-38.4l-20.48-24.747 C420.547,131.48,417.987,131.48,417.133,131.48L417.133,131.48z"/> <path d="M417.133,276.547c-5.12,0-8.533-3.413-8.533-8.533v-76.8c0-5.12,3.413-8.533,8.533-8.533s8.533,3.413,8.533,8.533v76.8 C425.667,273.133,422.253,276.547,417.133,276.547z"/> <path d="M84.333,455.747c-5.12,0-8.533-3.413-8.533-8.533v-8.533c0-5.12,3.413-8.533,8.533-8.533s8.533,3.413,8.533,8.533v8.533 C92.867,452.333,89.453,455.747,84.333,455.747z"/> <path d="M84.333,411.373c-5.12,0-8.533-3.413-8.533-8.533v-17.92c0-5.12,3.413-8.533,8.533-8.533s8.533,3.413,8.533,8.533v17.92 C92.867,407.96,89.453,411.373,84.333,411.373z M84.333,358.467c-5.12,0-8.533-3.413-8.533-8.533v-17.92 c0-5.12,3.413-8.533,8.533-8.533s8.533,3.413,8.533,8.533v17.92C92.867,354.2,89.453,358.467,84.333,358.467z M84.333,304.707 c-5.12,0-8.533-3.413-8.533-8.533v-17.92c0-5.12,3.413-8.533,8.533-8.533s8.533,3.413,8.533,8.533v17.92 C92.867,301.293,89.453,304.707,84.333,304.707z M84.333,250.947c-5.12,0-8.533-3.413-8.533-8.533v-17.067 c0-5.12,3.413-8.533,8.533-8.533s8.533,3.413,8.533,8.533v17.067C92.867,247.533,89.453,250.947,84.333,250.947z M84.333,198.04 c-5.12,0-8.533-3.413-8.533-8.533v-17.92c0-5.12,3.413-8.533,8.533-8.533s8.533,3.413,8.533,8.533v17.92 C92.867,193.773,89.453,198.04,84.333,198.04z M84.333,144.28c-5.12,0-8.533-3.413-8.533-8.533v-17.92 c0-5.12,3.413-8.533,8.533-8.533s8.533,3.413,8.533,8.533v17.92C92.867,140.867,89.453,144.28,84.333,144.28z M84.333,91.373 c-5.12,0-8.533-3.413-8.533-8.533V64.92c0-5.12,3.413-8.533,8.533-8.533s8.533,3.413,8.533,8.533v17.92 C92.867,87.107,89.453,91.373,84.333,91.373z"/> <path d="M84.333,37.613c-5.12,0-8.533-3.413-8.533-8.533v-8.533c0-5.12,3.413-8.533,8.533-8.533s8.533,3.413,8.533,8.533v8.533 C92.867,34.2,89.453,37.613,84.333,37.613z"/> <path d="M357.4,464.28c-2.56,0-4.267-0.853-5.973-2.56c-3.413-3.413-3.413-8.533,0-11.947l42.667-42.667 c3.413-3.413,8.533-3.413,11.947,0c3.413,3.413,3.413,8.533,0,11.947l-42.667,42.667C361.667,463.427,359.96,464.28,357.4,464.28z"/> <path d="M400.067,464.28c-2.56,0-4.267-0.853-5.973-2.56l-42.667-42.667c-3.413-3.413-3.413-8.533,0-11.947 c3.413-3.413,8.533-3.413,11.947,0l42.667,42.667c3.413,3.413,3.413,8.533,0,11.947C404.333,463.427,402.627,464.28,400.067,464.28 z"/> </g> </g>
</svg>