<?xml version="1.0" encoding="UTF-8" standalone="no"?>
<!-- Created with Inkscape (http://www.inkscape.org/) -->

<svg
   version="1.1"
   id="svg1"
   width="512"
   height="512"
   viewBox="0 0 512 512"
   sodipodi:docname="Logo.svg"
   inkscape:version="1.3 (0e150ed6c4, 2023-07-21)"
   xmlns:inkscape="http://www.inkscape.org/namespaces/inkscape"
   xmlns:sodipodi="http://sodipodi.sourceforge.net/DTD/sodipodi-0.dtd"
   xmlns="http://www.w3.org/2000/svg"
   xmlns:svg="http://www.w3.org/2000/svg">
  <defs
     id="defs1" />
  <sodipodi:namedview
     id="namedview1"
     pagecolor="#ffffff"
     bordercolor="#000000"
     borderopacity="0.25"
     inkscape:showpageshadow="2"
     inkscape:pageopacity="0.0"
     inkscape:pagecheckerboard="0"
     inkscape:deskcolor="#d1d1d1"
     inkscape:zoom="0.90333337"
     inkscape:cx="313.28412"
     inkscape:cy="154.42804"
     inkscape:window-width="1920"
     inkscape:window-height="1009"
     inkscape:window-x="1912"
     inkscape:window-y="-8"
     inkscape:window-maximized="1"
     inkscape:current-layer="g1" />
  <g
     inkscape:groupmode="layer"
     inkscape:label="Image"
     id="g1"
     transform="translate(-82.294713,-101.30163)">
    <path
       id="path1-7-7"
       style="fill:#000000;stroke-width:0.683154"
       d="m 445.79796,138.5555 c -32.57853,-8.8344 -71.07505,30.81946 -52.00976,62.30406 16.13612,24.4252 56.96173,14.62279 68.54753,43.87123 5.56188,21.48227 33.08894,25.49504 49.73113,14.59266 19.22578,-9.80247 30.57015,-37.6721 18.07897,-56.53663 -14.70079,-18.36391 -41.3018,-17.96893 -58.8476,-31.72006 -7.53307,-9.32223 -3.28755,-28.66353 -19.08372,-30.08197 -2.10053,-1.03676 -4.24453,-1.84027 -6.41644,-2.42926 z m -1.84503,10.8422 c 1.4698,0.48066 2.90374,1.08158 4.28585,1.81551 22.65013,8.85615 18.4903,41.77347 0.87079,53.69344 -16.97379,13.91472 -43.76525,3.02286 -49.19096,-17.38938 -8.41026,-24.64444 21.98112,-45.30852 44.03432,-38.11957 z m -2.09015,13.83539 a 6.6392629,7.9410791 17.479498 0 0 -8.71799,5.5803 6.6392629,7.9410791 17.479498 0 0 3.94825,9.56627 6.6392629,7.9410791 17.479498 0 0 8.71719,-5.57782 6.6392629,7.9410791 17.479498 0 0 -3.94745,-9.56875 z m 59.97816,28.99483 c 27.6287,7.25052 27.23312,56.3012 -2.10973,61.2031 -20.09419,4.7095 -39.40602,-13.35045 -37.34096,-33.52105 0.0305,-19.59206 18.83839,-30.69954 36.69048,-28.25157 0.94955,0.14383 1.86898,0.33585 2.76024,0.56941 z m 3.95103,14.60993 a 6.2487181,5.0770831 17.479498 0 0 -7.48609,2.96599 6.2487181,5.0770831 17.479498 0 0 4.43583,6.72023 6.2487181,5.0770831 17.479498 0 0 7.48361,-2.96673 6.2487181,5.0770831 17.479498 0 0 -4.43335,-6.71949 z m -67.96737,21.22202 c -59.04255,-8.4906 -115.1926,-41.81018 -176.27569,-31.39962 -59.79118,4.59075 -117.21037,51.12381 -123.93002,112.51618 -6.8029,43.65225 12.62216,97.21404 57.91049,111.34678 35.11988,9.00886 66.89666,-14.80297 101.18818,-17.08658 16.67159,19.74974 -1.56133,45.4222 2.71544,67.81166 6.08989,16.3504 15.9328,31.20984 24.81796,46.50391 21.25523,31.70744 59.18565,56.92842 98.67644,49.52857 40.6923,-11.67376 57.25276,-57.64845 57.25999,-96.24448 -2.22117,-59.78666 -16.46202,-118.42055 -19.83876,-178.14887 2.10149,-23.02219 1.07381,-52.78169 -22.52403,-64.82755 z m -87.061,-13.83781 c 28.06987,17.07539 68.042,12.38476 89.28462,40.57743 14.7715,19.11823 -0.15571,43.99566 -16.0411,57.004 -53.27154,41.71539 -113.99931,75.71541 -179.90425,92.48674 -22.25454,6.77556 -48.38938,8.10781 -67.25321,-7.85625 -34.9285,-27.36894 -37.58009,-79.97344 -19.82156,-117.88616 15.79628,-35.41513 49.85332,-61.103 88.02935,-67.41095 34.84522,-7.78614 71.10596,-4.14165 105.70615,3.08519 z m 99.14432,89.0674 c 7.54362,61.7065 24.63451,123.18021 19.24754,185.77075 -4.13317,30.49023 -22.78742,66.42627 -57.1269,68.7431 -47.02965,-0.94799 -84.97455,-40.59395 -98.40113,-83.43366 -12.31726,-32.02816 -1.72704,-70.49809 25.58382,-91.39078 29.63093,-19.26223 61.8716,-35.1139 88.18058,-59.23115 7.8067,-6.52045 14.33203,-14.39275 22.51609,-20.45826 z M 163.1925,251.67077 c 1.51953,2.99846 -3.35472,-1.09942 0,0 z m -18.67549,105.42537 c 0.19913,0.56879 -2.77565,2.76585 -1.53171,0.20965 1.04515,-0.40898 1.46529,-0.39925 1.53171,-0.20965 z" />
    <path
       style="fill:#ffffff;stroke-width:1.56555"
       d="M 114.73296,304.67674 C 92.316107,297.33057 74.998721,277.2179 67.79694,250.16456 c -3.343395,-12.5594 -3.260545,-35.94491 0.179112,-50.55693 4.254281,-18.07263 14.773505,-37.68746 27.54606,-51.36419 18.734578,-20.0608 37.921958,-30.90039 66.422838,-37.52445 29.81005,-6.92834 93.16465,-3.47592 112.34416,6.12203 4.04956,2.0265 17.32962,6.47414 29.51124,9.88363 26.84447,7.51345 39.28162,13.21224 47.99859,21.99329 12.70379,12.79719 14.25533,25.82345 5.00497,42.02023 -6.13906,10.7491 -14.81712,18.96154 -36.3991,34.44618 -48.1136,34.52052 -99.45495,59.98143 -150.54263,74.65624 -23.4239,6.72845 -43.8792,8.52287 -55.12922,4.83615 z"
       id="path1"
       transform="translate(82.294713,101.30163)" />
    <path
       style="fill:#ffffff;stroke-width:1.56555"
       d="m 311.88415,453.30612 c -50.77411,-12.29413 -93.86869,-77.53438 -82.66546,-125.14605 3.37688,-14.35114 11.84142,-30.06255 20.91768,-38.82625 4.06813,-3.92804 18.66857,-14.02586 32.44541,-22.43961 36.02813,-22.00297 49.65085,-31.66248 67.20228,-47.6514 8.54652,-7.78567 16.11987,-14.15576 16.82966,-14.15576 0.70979,0 1.29053,1.62943 1.29053,3.62096 0,1.99152 2.14976,16.60984 4.77725,32.48516 10.76585,65.04745 12.59303,80.16325 13.51897,111.83836 0.83551,28.58145 0.62413,32.47105 -2.42473,44.61817 -4.55084,18.13112 -11.77656,31.86049 -22.34535,42.45775 -14.10114,14.13912 -29.12894,18.14239 -49.54624,13.19867 z"
       id="path2"
       transform="translate(82.294713,101.30163)" />
    <path
       style="fill:#ffffff;stroke-width:0.553506"
       d="m 344.28043,109.2117 c -0.76107,-0.1274 -2.62915,-0.6223 -4.15129,-1.09979 -14.60473,-4.58138 -24.26314,-17.891977 -23.37272,-32.210774 0.38956,-6.264482 3.20389,-12.097237 8.25101,-17.100368 4.22035,-4.18357 5.54439,-5.119819 11.16625,-7.8958 9.11089,-4.498805 18.71345,-5.068561 27.38118,-1.624628 2.53359,1.006667 5.8888,2.726139 7.45603,3.82105 11.94293,8.343691 13.55159,27.007678 3.60906,41.872993 -6.89771,10.312927 -19.22521,16.097817 -30.33952,14.237317 z M 360.2259,76.370257 c 2.08677,-1.272276 3.9503,-4.865389 3.96857,-7.651923 0.0375,-5.71723 -5.18307,-9.000922 -9.81762,-6.175201 -3.01657,1.839224 -4.09965,4.146166 -3.86865,8.240192 0.17817,3.157902 0.38767,3.700711 1.97605,5.119926 2.16451,1.933992 5.05,2.108056 7.74165,0.467006 z"
       id="path3"
       transform="translate(82.294713,101.30163)" />
    <path
       style="fill:#ffffff;stroke-width:0.553506"
       d="m 405.34159,151.93561 c -14.61494,-3.17693 -25.0833,-16.1968 -25.0833,-31.197 0,-13.9634 7.5465,-24.43191 20.6012,-28.577983 11.48879,-3.648753 22.40093,-1.631121 29.47957,5.450707 3.42582,3.427366 5.45859,6.775656 7.36467,12.130746 1.25139,3.51579 1.42966,4.91326 1.46391,11.47563 0.0338,6.48643 -0.13822,8.0104 -1.30409,11.55057 -3.49139,10.6016 -10.78203,17.17614 -21.26097,19.17266 -5.14887,0.98101 -6.72692,0.98026 -11.26099,-0.005 z m 20.51745,-36.87826 c 1.86823,-0.85123 2.84513,-3.34682 2.19604,-5.61004 -1.15133,-4.01446 -8.0827,-5.85379 -11.01383,-2.92266 -1.46253,1.46253 -1.79241,3.99217 -0.76978,5.90298 1.45501,2.7187 6.40964,4.07768 9.58757,2.62972 z"
       id="path4"
       transform="translate(82.294713,101.30163)" />
  </g>
</svg>
