<?xml version="1.0" encoding="UTF-8" standalone="no"?>
<!-- Created with Inkscape (http://www.inkscape.org/) -->

<svg
   version="1.1"
   id="svg1"
   width="512"
   height="512"
   viewBox="0 0 512 512"
   sodipodi:docname="Logo.svg"
   inkscape:version="1.3 (0e150ed6c4, 2023-07-21)"
   inkscape:export-filename="Logo-16.png"
   inkscape:export-xdpi="3"
   inkscape:export-ydpi="3"
   xmlns:inkscape="http://www.inkscape.org/namespaces/inkscape"
   xmlns:sodipodi="http://sodipodi.sourceforge.net/DTD/sodipodi-0.dtd"
   xmlns="http://www.w3.org/2000/svg"
   xmlns:svg="http://www.w3.org/2000/svg">
  <defs
     id="defs1" />
  <sodipodi:namedview
     id="namedview1"
     pagecolor="#ffffff"
     bordercolor="#000000"
     borderopacity="0.25"
     inkscape:showpageshadow="2"
     inkscape:pageopacity="0.0"
     inkscape:pagecheckerboard="0"
     inkscape:deskcolor="#d1d1d1"
     inkscape:zoom="1.2775063"
     inkscape:cx="210.17509"
     inkscape:cy="203.13011"
     inkscape:window-width="1920"
     inkscape:window-height="1009"
     inkscape:window-x="1912"
     inkscape:window-y="-8"
     inkscape:window-maximized="1"
     inkscape:current-layer="g2" />
  <g
     inkscape:groupmode="layer"
     inkscape:label="Image"
     id="g1"
     transform="translate(-82.294713,-101.30163)">
    <g
       id="g2"
       transform="matrix(0.95385063,0,0,0.95385063,17.952695,20.649785)">
      <path
         id="path1"
         style="fill:#ffffff;stroke-width:1.56555"
         d="m 433.98706,148.24529 c -5.18212,0.0292 -10.46302,1.31513 -15.58789,3.84571 -5.62186,2.77598 -6.94567,3.71292 -11.16602,7.89648 -5.04711,5.00313 -7.86239,10.83514 -8.25195,17.09961 -0.89042,14.31878 8.76833,27.62956 23.37305,32.21094 1.52213,0.47749 3.39127,0.97221 4.15234,1.09961 11.1143,1.8605 23.44019,-3.92341 30.33789,-14.23633 9.94252,-14.8653 8.3355,-33.52936 -3.60742,-41.87305 -1.56723,-1.09491 -4.92345,-2.81364 -7.45703,-3.82031 -3.79213,-1.50672 -7.76243,-2.24534 -11.79297,-2.22266 z m 59.59961,43.32227 c -3.37823,0.0519 -6.91171,0.63906 -10.50195,1.7793 -13.05469,4.14607 -20.60157,14.61474 -20.60157,28.57812 0,15.00019 10.46906,28.02034 25.08399,31.19727 4.53406,0.98526 6.11285,0.98687 11.26172,0.006 10.47893,-1.99652 17.76837,-8.57224 21.25976,-19.17383 1.16587,-3.54017 1.33849,-5.06436 1.30469,-11.55078 -0.0343,-6.56237 -0.21346,-7.95883 -1.46485,-11.47461 -1.90607,-5.35509 -3.93746,-8.7035 -7.36328,-12.13086 -4.86656,-4.86875 -11.54642,-7.34464 -18.97851,-7.23047 z M 287.7605,208.26678 c -16.51466,-0.0981 -32.41109,1.04055 -43.58985,3.63867 -28.50085,6.62405 -47.68927,17.46461 -66.42383,37.52539 -12.77254,13.67672 -23.29064,33.29067 -27.54492,51.36328 -3.43965,14.61201 -3.52308,37.99726 -0.17968,50.55664 7.20177,27.05332 24.51871,47.16556 46.93554,54.51172 11.25001,3.68672 31.70503,1.89251 55.12891,-4.83594 51.08763,-14.67479 102.42941,-40.13576 150.54297,-74.65625 21.58196,-15.48462 30.26133,-23.69622 36.40039,-34.44531 9.25035,-16.19676 7.69792,-29.22235 -5.00586,-42.01953 -8.71696,-8.78104 -21.15361,-14.4807 -47.99805,-21.99414 -12.18161,-3.40949 -25.46216,-7.85632 -29.51172,-9.88281 -11.98718,-5.99872 -41.22947,-9.59819 -68.7539,-9.76172 z m 161.07812,98.00781 c -0.70979,0 -8.28357,6.36864 -16.83008,14.1543 -17.55141,15.9889 -31.17307,25.64939 -67.20117,47.65234 -13.77682,8.41374 -28.37719,18.51142 -32.44531,22.43945 -9.07625,8.7637 -17.54109,24.47505 -20.91797,38.82618 -11.20322,47.61162 31.89196,112.85236 82.66602,125.14648 20.41728,4.94372 35.44379,0.93989 49.54492,-13.19922 10.56878,-10.59725 17.79487,-24.32593 22.3457,-42.45703 3.04886,-12.14711 3.26129,-16.03772 2.42578,-44.61914 -0.92594,-31.67508 -2.75369,-46.79051 -13.51953,-111.83789 -2.62749,-15.8753 -4.77734,-30.49286 -4.77734,-32.48438 0,-1.99152 -0.58123,-3.62109 -1.29102,-3.62109 z"
         sodipodi:nodetypes="sssssssssscssccscssccssssssssssscsssssssssssss" />
      <path
         id="path1-7-7"
         style="fill:#000000;stroke-width:0.683154"
         d="m 434.625,133.33398 c -12.82342,0.53226 -25.01023,6.59418 -34.15164,15.43651 -7.83057,7.5605 -13.65802,17.47338 -15.31975,28.31566 -1.42947,9.36679 0.66285,19.31 6.09509,27.11198 4.38076,6.22568 10.82756,10.69793 17.71094,13.77438 0.77905,0.33747 -0.78685,-0.16155 -1.10919,-0.21696 -9.90811,-2.5617 -19.86445,-5.53555 -29.69811,-8.49584 -23.06824,-6.93101 -46.23358,-14.11467 -70.21119,-17.13047 -14.56658,-1.85556 -29.3928,-2.05458 -43.93996,0.0933 -2.07709,0.34479 -4.1632,0.60124 -6.26167,0.77261 -29.59326,3.09093 -57.95849,15.84375 -80.37082,35.33794 -17.23829,15.00355 -30.97506,34.29167 -38.31138,56.01516 -2.79121,8.21022 -4.60435,16.73752 -5.55407,25.35312 -2.79844,19.54195 -0.67925,39.75186 5.96312,58.33309 5.77097,16.07355 15.27117,31.05495 28.51115,41.99167 7.83303,6.44267 16.89294,11.462 26.62327,14.3684 11.64933,3.06388 23.97514,2.59468 35.69582,0.17098 18.56058,-3.72965 35.96329,-11.66926 54.50905,-15.45551 3.33993,-0.67108 6.71134,-1.19728 10.1045,-1.50849 3.4162,4.64091 4.96608,10.4486 4.96534,16.16638 0.0552,3.61588 -0.38212,7.21554 -0.91847,10.78479 -0.12548,0.72357 -0.2767,1.74542 -0.42943,2.58523 -1.61863,9.30964 -4.03445,18.64886 -3.72887,28.1915 0.10437,2.59115 0.26998,5.2286 1.03868,7.71646 5.76085,15.27412 14.568,29.10591 22.83146,43.09986 1.66974,2.96366 3.50624,5.82713 5.56489,8.5241 11.70096,15.86106 26.90439,29.29894 44.59639,38.10334 13.50174,6.68534 28.61849,10.44663 43.73069,9.71475 3.99248,-0.19288 7.99317,-0.61157 11.89489,-1.48878 12.57241,-3.63755 23.96903,-11.00058 32.70526,-20.71817 10.01223,-11.03999 16.83559,-24.66638 21.12819,-38.86275 4.00846,-13.3152 5.97051,-27.2421 5.86972,-41.14409 -1.50552,-38.97237 -8.05342,-77.51755 -13.35972,-116.07017 -1.7271,-12.4775 -3.30213,-24.96408 -4.55534,-37.53497 -0.60276,-6.12432 -1.14,-12.40673 -1.5637,-18.60458 -0.0875,-2.04098 -0.3668,-4.08875 -0.24072,-6.12928 1.02465,-12.21797 1.0818,-24.69805 -1.86942,-36.67227 -0.33474,-0.98654 0.34685,0.29248 0.61275,0.58059 3.87034,5.45908 9.6907,9.33527 16.01459,11.38584 9.32599,3.02905 19.71853,2.47754 28.7636,-1.25082 2.5287,-1.00572 4.86486,-2.40836 7.20312,-3.78125 10.57299,-5.93057 18.34876,-16.24628 22.04297,-27.70899 2.81332,-8.81363 3.09474,-18.63619 -0.32396,-27.32689 -1.35978,-3.50301 -3.24267,-6.85143 -5.91387,-9.5261 -5.70237,-6.05198 -13.05537,-10.25839 -20.67749,-13.41775 -10.32967,-4.36203 -21.36285,-7.11011 -31.15464,-12.69736 -1.75915,-1.06895 -3.58198,-2.09878 -5.10775,-3.48737 -2.55161,-3.75397 -3.23022,-8.34489 -4.40193,-12.63709 -1.20053,-4.84209 -2.73683,-9.86724 -6.27387,-13.55392 -2.64799,-2.77243 -6.36534,-4.32764 -10.12187,-4.8001 -5.77899,-2.72551 -12.22969,-3.96204 -18.60665,-3.70772 z m -0.23438,18.61719 c 4.33838,-0.0507 8.68034,0.99452 12.50865,3.03769 5.1717,1.9626 9.43532,6.20182 11.30385,11.42325 2.50807,6.71586 1.87416,14.27807 -0.5927,20.90866 -2.16104,5.81698 -5.96253,11.11275 -11.15308,14.58578 -5.43893,4.49961 -12.94066,6.11861 -19.82233,4.80781 -9.5883,-1.70514 -18.35855,-8.35621 -21.94713,-17.50121 -1.34478,-3.69732 -2.50876,-7.60035 -2.13844,-11.57976 0.36202,-5.52464 3.07506,-10.66504 6.82719,-14.64952 3.29953,-3.5445 7.40927,-6.28971 11.84993,-8.19481 0.3612,-0.15417 1.05591,-0.43934 1.56253,-0.62617 3.70166,-1.39509 7.64282,-2.17385 11.60153,-2.21172 z m 5.78126,7.02344 c -4.4677,0.006 -8.50784,3.12577 -10.25586,7.14062 -2.04768,4.40697 -1.50037,10.1637 2.03513,13.6629 2.37873,2.43202 6.06325,3.41275 9.34215,2.52513 5.05039,-1.30525 8.60259,-6.26906 8.90701,-11.37221 0.38799,-4.3236 -1.72742,-9.00262 -5.74098,-10.93739 -1.32754,-0.65932 -2.80541,-1.00956 -4.28745,-1.01905 z m 55.2832,36.37695 c 4.78578,0.0863 9.56521,1.70758 13.26187,4.77904 5.26712,4.39764 8.20214,11.07066 9.09638,17.77332 1.02629,7.63756 -0.26467,15.79191 -4.55474,22.29413 -2.70041,4.1778 -6.89546,7.36815 -11.69137,8.72801 -2.91437,0.72821 -5.89913,1.36572 -8.9226,1.24807 -7.26514,-0.15681 -14.23226,-3.66667 -19.07917,-9.01105 -5.23606,-5.63571 -8.06593,-13.53965 -7.17537,-21.22205 -0.067,-6.29816 2.54582,-12.59638 7.19299,-16.87429 5.80226,-5.46905 13.98453,-8.02666 21.87201,-7.71518 z m 3.56836,11.15235 c -3.64971,0.11912 -7.33881,2.39135 -8.47731,5.96708 -1.0981,3.17872 0.0387,6.81063 2.41285,9.10713 3.52733,3.56579 9.62329,4.45436 13.82618,1.56055 3.14313,-2.09013 4.51531,-6.44433 3.04668,-9.9397 -1.63438,-4.28581 -6.31931,-6.91326 -10.8084,-6.69506 z m -211.05274,4.27734 c 3.75491,0.0363 7.37758,0.13532 11.12696,0.33398 5.96597,0.31515 12.16946,0.85968 18.20803,1.57797 31.00978,6.39673 70.29569,15.4286 99.37425,28.5395 7.03642,3.35197 13.57619,7.94189 18.57505,13.96985 2.9895,3.45774 5.42586,7.51606 6.32865,12.04323 0.21883,1.05311 0.36346,2.11834 0.4398,3.0843 0.54229,7.16206 -1.86106,14.21055 -5.32553,20.38554 -3.83536,6.80621 -9.0277,12.82199 -15.03047,17.8064 -3.91291,3.15543 -7.95622,6.14578 -11.96597,9.17628 -29.55369,22.02856 -61.21178,41.52702 -94.74954,57.00094 -5.60173,2.58671 -11.2409,5.06067 -16.98112,7.423 -5.60815,2.31293 -11.43829,4.5779 -17.13722,6.64228 -12.17445,4.43192 -24.56867,8.25006 -37.10724,11.50946 -4.56643,1.28034 -9.1428,2.55761 -13.82522,3.34956 -2.73301,0.49115 -5.70109,0.89672 -8.55365,1.13824 -1.15285,0.10221 -2.30639,0.17049 -3.53303,0.22845 -1.19612,0.0531 -2.64304,0.0822 -3.9375,0.0742 -9.71891,-0.0426 -19.58369,-2.1439 -28.01367,-7.11133 -4.00871,-2.37047 -7.57424,-5.40788 -11.0293,-8.50976 -10.62617,-9.79826 -17.81126,-22.97061 -21.41063,-36.8945 -4.22917,-16.23373 -4.04115,-33.45786 -0.41163,-49.78519 2.62966,-11.86762 7.30695,-23.2404 13.44542,-33.7162 12.55694,-21.0911 32.2449,-37.72663 54.92372,-47.02794 0.7188,-0.28865 1.71857,-0.69691 2.5539,-1.01026 7.24427,-2.80979 14.7982,-4.76246 22.45196,-6.06982 11.0845,-2.44103 22.40933,-3.70553 33.74805,-4.06054 1.6458,-0.0434 3.51188,-0.0815 5.24218,-0.0957 0.86459,-6.5e-4 1.72917,-10e-4 2.59375,-0.002 z M 163.41211,251.9082 c 0.22483,0.48939 0.0546,1.20595 -0.5758,0.75738 -0.39521,-0.19121 -0.93082,-0.70168 -0.79334,-1.14605 0.45638,0.12956 0.91276,0.25912 1.36914,0.38867 z m 283.73828,61.21875 c 3.07667,22.40184 7.12592,44.654 10.74023,66.97266 2.61804,16.28201 5.02654,32.6818 6.54995,49.0721 0.7426,7.92557 1.2721,15.8468 1.54966,23.77165 0.19819,6.03348 0.25411,12.24105 0.11524,18.3418 -0.0915,3.85 -0.26113,7.81189 -0.50195,11.63476 -0.20832,3.49739 -0.48031,6.9982 -1.18693,10.43608 -2.27923,12.14528 -6.55317,23.99569 -13.15055,34.47655 -5.50207,8.66035 -12.82506,16.43342 -22.04577,21.14105 -1.04339,0.5378 -1.9692,0.97112 -3.08432,1.44498 -4.60332,1.94249 -9.54929,3.13058 -14.54415,3.36072 -3.45764,-0.0544 -7.05143,-0.42504 -10.37696,-0.93164 -2.2323,-0.3546 -4.56232,-0.81397 -6.65671,-1.32971 -1.96468,-0.46705 -4.24112,-1.11832 -6.15969,-1.73279 -16.78379,-5.41139 -31.60931,-15.93367 -43.45049,-28.87633 -4.86428,-5.31252 -9.2458,-11.062 -13.1374,-17.12172 -0.34336,-0.55597 -0.84005,-1.32047 -1.18535,-1.88611 -0.80263,-1.3064 -1.55546,-2.56602 -2.33848,-3.94416 -4.45695,-7.78784 -8.05305,-16.0589 -10.80012,-24.59871 -1.01512,-2.8581 -2.03729,-5.77216 -2.72525,-8.65602 -1.96655,-7.82264 -2.6102,-15.9653 -2.00354,-24.00484 0.091,-1.1468 0.22275,-2.54305 0.38267,-3.78143 0.23823,-1.98989 0.61755,-4.22832 1.0467,-6.29678 1.30186,-6.23355 3.36421,-12.30669 6.12532,-18.04484 0.31885,-0.64128 0.76893,-1.56598 1.1619,-2.30307 4.93474,-9.40788 11.84945,-17.83291 20.35763,-24.22427 23.95963,-15.50356 49.37463,-28.7923 72.18933,-46.03076 5.82498,-4.36383 11.38555,-9.06681 16.79505,-13.93409 5.58696,-4.77842 10.57234,-10.20384 16.04492,-15.10742 0.0963,0.71745 0.19271,1.4349 0.28906,2.15234 z M 143.9707,356.88086 c 0.93362,0.0302 0.31655,0.53306 -0.10283,0.84221 -0.38608,0.18758 -0.64305,0.92108 -1.12178,0.74568 -0.27326,-0.47187 0.0792,-1.08142 0.38849,-1.42109 0.2487,-0.14549 0.55169,-0.18744 0.83612,-0.1668 z"
         sodipodi:nodetypes="scccccccccccccccccccccccccccccccccccccccccccccccccsscccccccccccccccccccccccccccccccccccccccccccccccccccccccccccccccccccccccccccccccccccccccccccccccccccccccc" />
    </g>
  </g>
</svg>
